<?xml version="1.0" encoding="utf-8"?>
<!-- Generator: Adobe Illustrator 18.0.0, SVG Export Plug-In . SVG Version: 6.00 Build 0)  -->
<!DOCTYPE svg PUBLIC "-//W3C//DTD SVG 1.1//EN" "http://www.w3.org/Graphics/SVG/1.1/DTD/svg11.dtd">
<svg version="1.1" id="Layer_1" xmlns="http://www.w3.org/2000/svg" xmlns:xlink="http://www.w3.org/1999/xlink" x="0px" y="0px"
	 viewBox="0 0 103.2 103.2" enable-background="new 0 0 103.2 103.2" xml:space="preserve">
<linearGradient id="SVGID_1_" gradientUnits="userSpaceOnUse" x1="51.6063" y1="103.2126" x2="51.6063" y2="-2.503849e-05">
	<stop  offset="0" style="stop-color:#056DAD"/>
	<stop  offset="1" style="stop-color:#6BC6FF"/>
</linearGradient>
<path fill="url(#SVGID_1_)" d="M93.2,0H10C4.5,0,0,4.5,0,10v83.1c0,5.5,4.5,10,10,10h83.1c5.5,0,10-4.5,10-10V10
	C103.2,4.5,98.7,0,93.2,0z M21.5,75.1c-1.2,0-2.4-0.3-3.6-0.9c-3.6-2-5-6.5-3-10.2l17.7-32.4c2-3.6,6.5-5,10.2-3c3.6,2,5,6.5,3,10.2
	L28.1,71.2C26.7,73.7,24.1,75.1,21.5,75.1z M51.6,56.9c-4.1,0-7.5-3.4-7.5-7.5s3.4-7.5,7.5-7.5s7.5,3.4,7.5,7.5S55.7,56.9,51.6,56.9
	z M85.4,74.2c-1.1,0.6-2.4,0.9-3.6,0.9c-2.7,0-5.2-1.4-6.6-3.9L57.6,38.8c-2-3.6-0.6-8.2,3-10.2c3.6-2,8.2-0.6,10.2,3L88.4,64
	C90.4,67.7,89,72.2,85.4,74.2z"/>
</svg>
